HIERARCHY
ROOT hip
{
  OFFSET 0 0 0
  CHANNELS 6 Xposition Yposition Zposition Zrotation Yrotation Xrotation
  JOINT abdomen
  {
    OFFSET 0 20.6881 -0.73152
    CHANNELS 3 Zrotation Xrotation Yrotation
    JOINT chest
    {
      OFFSET 0 11.7043 -0.48768
      CHANNELS 3 Zrotation Xrotation Yrotation
      JOINT neck
      {
        OFFSET 0 22.1894 -2.19456
        CHANNELS 3 Zrotation Xrotation Yrotation
        JOINT head
        {
          OFFSET -0.24384 7.07133 1.2192
          CHANNELS 3 Zrotation Xrotation Yrotation
          JOINT leftEye
          {
            OFFSET 4.14528 8.04674 8.04672
            CHANNELS 3 Zrotation Xrotation Yrotation
            End Site
            {
              OFFSET 1 0 0
            }
          }
          JOINT rightEye
          {
            OFFSET -3.6576 8.04674 8.04672
            CHANNELS 3 Zrotation Xrotation Yrotation
            End Site
            {
              OFFSET 1 0 0
            }
          }
        }
      }
      JOINT rCollar
      {
        OFFSET -2.68224 19.2634 -4.8768
        CHANNELS 3 Zrotation Xrotation Yrotation
        JOINT rShldr
        {
          OFFSET -8.77824 -1.95073 1.46304
          CHANNELS 3 Zrotation Xrotation Yrotation
          JOINT rForeArm
          {
            OFFSET -28.1742 -1.7115 0.48768
            CHANNELS 3 Zrotation Xrotation Yrotation
            JOINT rHand
            {
              OFFSET -22.5879 0.773209 7.07136
              CHANNELS 3 Zrotation Xrotation Yrotation
              JOINT rThumb1
              {
                OFFSET -1.2192 -0.487915 3.41376
                CHANNELS 3 Zrotation Xrotation Yrotation
                JOINT rThumb2
                {
                  OFFSET -3.37035 -0.52449 3.41376
                  CHANNELS 3 Zrotation Xrotation Yrotation
                  End Site
                  {
                    OFFSET -1.78271 -1.18214 1.43049
                  }
                }
              }
              JOINT rIndex1
              {
                OFFSET -7.75947 0.938293 5.60832
                CHANNELS 3 Zrotation Xrotation Yrotation
                JOINT rIndex2
                {
                  OFFSET -2.54057 -0.884171 1.56538
                  CHANNELS 3 Zrotation Xrotation Yrotation
                  End Site
                  {
                    OFFSET -1.62519 -0.234802 1.16502
                  }
                }
              }
              JOINT rMid1
              {
                OFFSET -8.24714 1.18213 3.41376
                CHANNELS 3 Zrotation Xrotation Yrotation
                JOINT rMid2
                {
                  OFFSET -3.10165 -0.590103 1.0647
                  CHANNELS 3 Zrotation Xrotation Yrotation
                  End Site
                  {
                    OFFSET -2.48547 -0.328903 0.83742
                  }
                }
              }
              JOINT rRing1
              {
                OFFSET -8.82822 0.546677 1.51678
                CHANNELS 3 Zrotation Xrotation Yrotation
                JOINT rRing2
                {
                  OFFSET -2.60934 -0.819778 -0.0198488
                  CHANNELS 3 Zrotation Xrotation Yrotation
                  End Site
                  {
                    OFFSET -2.33842 -0.294052 0.168128
                  }
                }
              }
              JOINT rPinky1
              {
                OFFSET -8.27202 -0.0477905 -0.4584
                CHANNELS 3 Zrotation Xrotation Yrotation
                JOINT rPinky2
                {
                  OFFSET -1.82734 -0.647385 -0.700984
                  CHANNELS 3 Zrotation Xrotation Yrotation
                  End Site
                  {
                    OFFSET -1.69225 -0.51767 -0.607171
                  }
                }
              }
            }
          }
        }
      }
      JOINT lCollar
      {
        OFFSET 2.68224 19.2634 -4.8768
        CHANNELS 3 Zrotation Xrotation Yrotation
        JOINT lShldr
        {
          OFFSET 8.77824 -1.95073 1.46304
          CHANNELS 3 Zrotation Xrotation Yrotation
          JOINT lForeArm
          {
            OFFSET 28.1742 -1.7115 0.48768
            CHANNELS 3 Zrotation Xrotation Yrotation
            JOINT lHand
            {
              OFFSET 22.5879 0.773209 7.07136
              CHANNELS 3 Zrotation Xrotation Yrotation
              JOINT lThumb1
              {
                OFFSET 1.2192 -0.487915 3.41376
                CHANNELS 3 Zrotation Xrotation Yrotation
                JOINT lThumb2
                {
                  OFFSET 3.37035 -0.52449 3.41376
                  CHANNELS 3 Zrotation Xrotation Yrotation
                  End Site
                  {
                    OFFSET 1.78271 -1.18214 1.43049
                  }
                }
              }
              JOINT lIndex1
              {
                OFFSET 7.75947 0.938293 5.60832
                CHANNELS 3 Zrotation Xrotation Yrotation
                JOINT lIndex2
                {
                  OFFSET 2.54057 -0.884171 1.56538
                  CHANNELS 3 Zrotation Xrotation Yrotation
                  End Site
                  {
                    OFFSET 1.62519 -0.234802 1.16502
                  }
                }
              }
              JOINT lMid1
              {
                OFFSET 8.24714 1.18213 3.41376
                CHANNELS 3 Zrotation Xrotation Yrotation
                JOINT lMid2
                {
                  OFFSET 3.10165 -0.590103 1.0647
                  CHANNELS 3 Zrotation Xrotation Yrotation
                  End Site
                  {
                    OFFSET 2.48547 -0.328903 0.83742
                  }
                }
              }
              JOINT lRing1
              {
                OFFSET 8.82822 0.546677 1.51678
                CHANNELS 3 Zrotation Xrotation Yrotation
                JOINT lRing2
                {
                  OFFSET 2.60934 -0.819778 -0.0198488
                  CHANNELS 3 Zrotation Xrotation Yrotation
                  End Site
                  {
                    OFFSET 2.33842 -0.294052 0.168128
                  }
                }
              }
              JOINT lPinky1
              {
                OFFSET 8.27202 -0.0477905 -0.4584
                CHANNELS 3 Zrotation Xrotation Yrotation
                JOINT lPinky2
                {
                  OFFSET 1.82734 -0.647385 -0.700984
                  CHANNELS 3 Zrotation Xrotation Yrotation
                  End Site
                  {
                    OFFSET 1.69225 -0.51767 -0.607171
                  }
                }
              }
            }
          }
        }
      }
    }
  }
  JOINT rButtock
  {
    OFFSET -8.77824 4.35084 1.2192
    CHANNELS 3 Zrotation Xrotation Yrotation
    JOINT rThigh
    {
      OFFSET 0 -1.70687 -2.19456
      CHANNELS 3 Zrotation Xrotation Yrotation
      JOINT rShin
      {
        OFFSET 0 -36.8199 0.73152
        CHANNELS 3 Zrotation Xrotation Yrotation
        JOINT rFoot
        {
          OFFSET 0.73152 -45.1104 -5.12064
          CHANNELS 3 Zrotation Xrotation Yrotation
          End Site
          {
            OFFSET -1.1221 -3.69964 12.103
          }
        }
      }
    }
  }
  JOINT lButtock
  {
    OFFSET 8.77824 4.35084 1.2192
    CHANNELS 3 Zrotation Xrotation Yrotation
    JOINT lThigh
    {
      OFFSET 0 -1.70687 -2.19456
      CHANNELS 3 Zrotation Xrotation Yrotation
      JOINT lShin
      {
        OFFSET 0 -36.8199 0.73152
        CHANNELS 3 Zrotation Xrotation Yrotation
        JOINT lFoot
        {
          OFFSET -0.73152 -45.1104 -5.12064
          CHANNELS 3 Zrotation Xrotation Yrotation
          End Site
          {
            OFFSET 1.1221 -3.69964 12.103
          }
        }
      }
    }
  }
}
MOTION
Frames:	6
Frame Time:	0.00833333
-221.621 83.185 11.6875 0.0 0.0 0.0 -3.13117 0.00208553 -0.0845021 -0.86322 0.0181965 -0.14933 -4.65617e-14 -1.59028e-15 7.95139e-16 -1.40373e-13 -6.36111e-15 2.28447e-15 -0.0 0.0 0.0 -0.0 0.0 0.0 -2.40061e-14 -1.28123e-16 5.46658e-16 -4.87946e-13 -2.6339e-15 7.55382e-15 -8.42012e-12 2.42855e-12 2.35361e-13 -9.6476e-11 -3.01743e-12 1.55211e-12 -2.27542e-10 -1.27907e-12 3.89936e-12 -3.92963e-10 -2.2073e-12 6.73801e-12 -2.27533e-10 -1.27381e-12 3.88982e-12 7.73091 5.47488 0.417314 -2.27541e-10 -1.27868e-12 3.89936e-12 2.90554 0.965183 0.102902 -2.2752e-10 -1.27739e-12 3.89618e-12 10.2786 0.731801 0.0259123 -2.27546e-10 -1.28017e-12 3.9089e-12 2.22167 -0.733487 -0.20892 -2.4002e-14 -1.32005e-16 1.98785e-16 -4.93941e-13 -2.4289e-15 5.96354e-15 -8.44358e-12 -2.60507e-12 2.54444e-13 -9.64501e-11 2.02273e-12 1.53939e-12 -2.27537e-10 -1.26968e-12 3.91526e-12 -3.92937e-10 -2.1914e-12 6.76822e-12 -2.27546e-10 -1.26427e-12 3.92162e-12 -7.73091 5.47488 -0.417314 -2.27539e-10 -1.26884e-12 3.9089e-12 -2.90554 0.965183 -0.102902 -2.27556e-10 -1.26854e-12 3.91367e-12 -10.2786 0.731801 -0.0259123 -2.2754e-10 -1.27063e-12 3.9089e-12 -2.22167 -0.733487 0.20892 -2.03217e-16 0.0 -3.88251e-19 -1.91921 -1.93503 0.0146316 -0.00849754 -2.07867 -0.0697338 -0.458212 4.00011 0.132392 2.03217e-16 0.0 3.88251e-19 -2.83865 -9.32621 0.32239 -0.0090222 11.3078 -0.235055 0.527803 -1.99506 -0.0184053
-216.867 80.3088 6.7044 0.2056 75.5653 3.4285 -5.46155 7.6713 1.3475 0.632486 0.0138874 0.145896 -3.50212 4.7672 -0.819375 7.88669 -17.0792 2.89276 -0.0 0.0 0.0 -0.0 0.0 0.0 -1.08864e-13 3.45177e-13 1.71644e-13 17.893 -2.24205 3.01137 -12.5429 -9.52729 13.6807 0.0131058 -2.61361 -0.366101 2.61462e-10 1.0366e-09 -5.87818e-10 4.55115e-10 1.76755e-09 -1.00694e-09 2.6147e-10 1.0366e-09 -5.87824e-10 7.73091 5.47488 0.417314 2.61462e-10 1.0366e-09 -5.87815e-10 2.90554 0.965183 0.102902 2.6148e-10 1.0366e-09 -5.87818e-10 10.2786 0.731801 0.0259123 2.6146e-10 1.0366e-09 -5.87805e-10 2.22167 -0.733487 -0.20892 -1.08861e-13 3.45174e-13 1.71323e-13 -17.9103 11.6467 0.113747 11.4995 -8.41125 -13.1832 -0.0295302 -3.9673 0.553551 1.55513e-10 2.53794e-12 2.76268e-10 2.63405e-10 3.52082e-12 4.80797e-10 1.55502e-10 2.5434e-12 2.76275e-10 -7.73091 5.47488 -0.417314 1.55512e-10 2.53976e-12 2.76263e-10 -2.90554 0.965183 -0.102902 1.55499e-10 2.54069e-12 2.76268e-10 -10.2786 0.731801 -0.0259123 1.5551e-10 2.53962e-12 2.76262e-10 -2.22167 -0.733487 0.20892 -2.03217e-16 0.0 -3.88251e-19 -2.68074 -15.4289 -2.77173 -0.0114347 23.8298 0.276554 -0.581842 0.446275 -0.925005 2.03217e-16 0.0 3.88251e-19 -0.243562 -13.4358 0.594052 -0.0247872 22.533 -0.433903 0.693119 -0.419475 2.86722
-215.489 80.9678 7.59849 -2.1337 74.7583 0.8253 -8.37756 15.7815 2.95206 2.23684 -0.00536895 0.457894 -7.06699 9.82824 -1.7115 18.4787 -35.009 6.94048 -0.0 0.0 0.0 -0.0 0.0 0.0 -1.97706e-13 6.98027e-13 3.527e-13 37.0249 -4.55176 6.25062 -20.8451 -17.7537 29.2632 -0.00981692 -5.30474 -0.745736 7.72114e-10 2.13513e-09 -1.21586e-09 1.34073e-09 3.64187e-09 -2.08303e-09 7.72119e-10 2.13513e-09 -1.21586e-09 7.73091 5.47488 0.417314 7.72112e-10 2.13514e-09 -1.21585e-09 2.90554 0.965183 0.102902 7.72126e-10 2.13514e-09 -1.21586e-09 10.2786 0.731801 0.0259123 7.72113e-10 2.13514e-09 -1.21584e-09 2.22167 -0.733487 -0.20892 -1.97702e-13 6.98024e-13 3.52408e-13 -36.9344 23.9581 0.204175 19.4577 -15.7872 -27.9576 0.0244758 -8.03213 1.13022 5.59672e-10 4.55886e-12 5.57558e-10 9.56211e-10 6.10706e-12 9.70296e-10 5.59659e-10 4.56442e-12 5.57566e-10 -7.73091 5.47488 -0.417314 5.59671e-10 4.56178e-12 5.57553e-10 -2.90554 0.965183 -0.102902 5.59662e-10 4.56343e-12 5.57559e-10 -10.2786 0.731801 -0.0259123 5.59669e-10 4.56343e-12 5.57552e-10 -2.22167 -0.733487 0.20892 -2.03217e-16 0.0 -3.88251e-19 -5.1289 -29.5671 -6.35447 -0.528804 51.2453 0.94984 -0.855532 -3.30839 -2.05132 2.03217e-16 0.0 3.88251e-19 2.5199 -17.8277 0.887593 0.0640322 34.4029 -0.702505 0.696968 1.21703 5.9116
-214.07 81.8474 8.44622 -3.3212 74.0278 -0.516 -11.3541 22.9514 4.53499 3.62403 0.00526886 0.736349 -10.0864 14.2897 -2.52788 31.3177 -50.557 13.1259 -0.0 0.0 0.0 -0.0 0.0 0.0 -2.78579e-13 1.03579e-12 5.13837e-13 54.387 -6.65164 9.08888 -24.4633 -21.9307 44.396 -0.0616815 -7.83954 -1.10751 1.23947e-09 3.11234e-09 -1.77125e-09 2.15127e-09 5.30707e-09 -3.0343e-09 1.23947e-09 3.11234e-09 -1.77125e-09 7.73091 5.47488 0.417314 1.23947e-09 3.11235e-09 -1.77124e-09 2.90554 0.965183 0.102902 1.23948e-09 3.11235e-09 -1.77125e-09 10.2786 0.731801 0.0259123 1.23947e-09 3.11235e-09 -1.77123e-09 2.22167 -0.733487 -0.20892 -2.78579e-13 1.03579e-12 5.13571e-13 -53.8955 34.9395 0.407701 23.3484 -19.8147 -42.1138 0.145647 -11.8974 1.69305 9.21613e-10 1.01532e-11 8.20974e-10 1.57609e-09 1.49453e-11 1.42885e-09 9.21599e-10 1.01587e-11 8.20982e-10 -7.73091 5.47488 -0.417314 9.21613e-10 1.0157e-11 8.2097e-10 -2.90554 0.965183 -0.102902 9.21608e-10 1.01592e-11 8.20976e-10 -10.2786 0.731801 -0.0259123 9.21611e-10 1.01601e-11 8.20967e-10 -2.22167 -0.733487 0.20892 -2.03217e-16 0.0 -3.88251e-19 -9.28839 -41.9544 -10.8464 -3.19339 75.62 3.61933 -1.22394 -6.65183 -3.05968 2.03217e-16 0.0 3.88251e-19 5.07261 -21.6526 1.18042 0.277919 44.9802 -1.0481 0.549089 2.69912 8.64789
-212.629 82.6346 9.02276 -3.5127 74.0894 -0.6558 -13.5729 27.8276 5.75021 4.46751 0.0906332 0.930946 -12.0518 17.2641 -3.08554 44.2918 -60.6833 21.1179 -0.0 0.0 0.0 -0.0 0.0 0.0 -3.39529e-13 1.33583e-12 6.25178e-13 66.8294 -8.29954 10.8753 -25.6002 -22.4491 55.1671 -0.123849 -9.98446 -1.41775 1.59859e-09 3.78623e-09 -2.14502e-09 2.77416e-09 6.44946e-09 -3.67353e-09 1.5986e-09 3.78622e-09 -2.14502e-09 7.73091 5.47488 0.417314 1.59859e-09 3.78623e-09 -2.14501e-09 2.90554 0.965183 0.102902 1.5986e-09 3.78623e-09 -2.14502e-09 10.2786 0.731801 0.0259123 1.59859e-09 3.78623e-09 -2.145e-09 2.22167 -0.733487 -0.20892 -3.39542e-13 1.33583e-12 6.24929e-13 -65.6976 42.5945 0.900604 24.8055 -20.6848 -52.269 0.294677 -15.267 2.19843 1.17801e-09 2.46811e-11 1.0397e-09 2.01365e-09 3.94134e-11 1.81006e-09 1.178e-09 2.46863e-11 1.03971e-09 -7.73091 5.47488 -0.417314 1.17801e-09 2.46851e-11 1.0397e-09 -2.90554 0.965183 -0.102902 1.17801e-09 2.46874e-11 1.03971e-09 -10.2786 0.731801 -0.0259123 1.17801e-09 2.46891e-11 1.0397e-09 -2.22167 -0.733487 0.20892 -2.03217e-16 0.0 -3.88251e-19 -13.8691 -50.3873 -15.3784 -155.686 87.2713 156.049 -1.54688 -8.97778 -3.7468 2.03217e-16 0.0 3.88251e-19 7.00954 -24.0619 1.43656 0.550725 52.3288 -1.40779 0.343937 3.828 10.6023
-211.19 83.3106 9.83427 -4.1737 73.2912 -1.5408 -14.2405 29.5446 6.25194 4.50798 0.307435 1.02246 -12.648 18.1304 -3.24146 50.8152 -64.0571 25.7491 -0.0 0.0 0.0 -0.0 0.0 0.0 -3.88492e-13 1.67758e-12 6.87934e-13 72.1775 -9.39978 11.2007 -25.9154 -22.0759 59.311 -0.175145 -11.4452 -1.63258 1.90056e-09 4.24841e-09 -2.35117e-09 3.29856e-09 7.21694e-09 -4.02339e-09 1.90056e-09 4.2484e-09 -2.35117e-09 7.73091 5.47488 0.417314 1.90056e-09 4.24841e-09 -2.35116e-09 2.90554 0.965183 0.102902 1.90056e-09 4.24841e-09 -2.35116e-09 10.2786 0.731801 0.0259123 1.90056e-09 4.24841e-09 -2.35115e-09 2.22167 -0.733487 -0.20892 -3.8854e-13 1.67759e-12 6.87694e-13 -70.1199 45.582 1.77167 25.2631 -20.6222 -56.3907 0.432788 -18.1545 2.64153 1.34813e-09 6.15442e-11 1.25321e-09 2.30025e-09 1.02577e-10 2.1834e-09 1.34812e-09 6.15484e-11 1.25322e-09 -7.73091 5.47488 -0.417314 1.34813e-09 6.15473e-11 1.25321e-09 -2.90554 0.965183 -0.102902 1.34812e-09 6.1549e-11 1.25321e-09 -10.2786 0.731801 -0.0259123 1.34813e-09 6.15511e-11 1.2532e-09 -2.22167 -0.733487 0.20892 -2.03217e-16 0.0 -3.88251e-19 -15.8634 -53.7505 -17.4381 -171.95 81.1496 172.283 -1.67755 -9.88829 -3.95443 2.03217e-16 0.0 3.88251e-19 8.09134 -24.4741 1.6415 0.700485 55.2253 -1.61268 0.186507 4.54406 11.6406
